<?xml version="1.0" encoding="utf-8"?>
<!-- Generator: Adobe Illustrator 15.1.0, SVG Export Plug-In . SVG Version: 6.00 Build 0)  -->
<!DOCTYPE svg PUBLIC "-//W3C//DTD SVG 1.1//EN" "http://www.w3.org/Graphics/SVG/1.1/DTD/svg11.dtd">
<svg version="1.1" id="Warstwa_1" xmlns="http://www.w3.org/2000/svg" xmlns:xlink="http://www.w3.org/1999/xlink" x="0px" y="0px"
	 width="510.432px" height="135.34px" viewBox="0 0 510.432 135.34" enable-background="new 0 0 510.432 135.34"
	 xml:space="preserve">
<path fill="#000003" d="M403.114,76.159c-0.101-0.155-0.187-0.259-0.244-0.318c-0.063-0.059-0.121-0.081-0.185-0.081
	c-0.101-0.007-0.236,0.037-0.408,0.119c-0.172,0.089-0.437,0.237-0.794,0.458c-0.064,0.037-0.258,0.155-0.572,0.355
	c-0.314,0.192-0.7,0.437-1.166,0.732c-0.465,0.289-0.951,0.6-1.459,0.925c-0.515,0.333-1.002,0.651-1.466,0.955
	c-0.465,0.311-0.859,0.577-1.174,0.806c-0.107,0.067-0.186,0.126-0.229,0.178c-0.05,0.052-0.071,0.111-0.071,0.177
	c0.007,0.089,0.028,0.156,0.079,0.201c0.042,0.044,0.092,0.066,0.136,0.066c0.042,0,0.128-0.022,0.242-0.059
	c0.114-0.044,0.251-0.097,0.401-0.163c0.357-0.163,0.801-0.333,1.323-0.525c0.521-0.186,1.08-0.378,1.681-0.556
	c0.601-0.185,1.209-0.347,1.81-0.488c0.608-0.141,1.181-0.237,1.709-0.296c0.365-0.037,0.658-0.052,0.873-0.037
	c0.215,0.022,0.351,0.029,0.414,0.037c0.101,0,0.172-0.037,0.229-0.118c0.064-0.082,0.043-0.223-0.058-0.415
	c-0.229-0.444-0.429-0.822-0.601-1.147C403.421,76.647,403.264,76.381,403.114,76.159 M386.206,89.301
	c0.351,0.408,0.894,1.037,1.631,1.888c0.729,0.844,1.608,1.843,2.617,3.005c1.009,1.154,2.11,2.404,3.298,3.744
	c1.18,1.34,2.402,2.708,3.654,4.107c0.923,1.021,1.874,2.072,2.868,3.152c0.987,1.08,1.96,2.124,2.904,3.138
	c0.943,1.021,1.81,1.939,2.597,2.774c0.779,0.829,1.423,1.503,1.924,2.028c0.5,0.525,0.808,0.844,0.907,0.939
	c0.752,0.777,1.331,1.369,1.746,1.784c0.422,0.414,0.729,0.695,0.93,0.844c0.2,0.147,0.351,0.222,0.458,0.215
	c0.078,0.007,0.136-0.022,0.186-0.082s0.093-0.192,0.122-0.399c0.028-0.2,0.05-0.518,0.064-0.94
	c0.007-0.429,0.014-1.006,0.014-1.731l0.086-26.02c-0.008-0.88,0.028-1.598,0.1-2.139c0.072-0.548,0.222-0.962,0.451-1.243
	c0.222-0.281,0.572-0.474,1.037-0.569c0.258-0.067,0.465-0.104,0.629-0.119c0.165-0.015,0.294-0.021,0.401-0.015
	c0.15,0,0.265-0.029,0.351-0.089c0.078-0.059,0.121-0.133,0.121-0.222c0-0.134-0.071-0.215-0.207-0.26
	c-0.136-0.036-0.329-0.059-0.565-0.051c-0.586,0-1.13,0.015-1.624,0.036c-0.486,0.015-0.908,0.037-1.259,0.06
	s-0.601,0.037-0.765,0.037c-0.165,0-0.479-0.015-0.937-0.037c-0.458-0.022-0.995-0.045-1.617-0.06
	c-0.615-0.021-1.252-0.036-1.909-0.036c-0.258-0.008-0.466,0.015-0.622,0.051c-0.15,0.045-0.229,0.126-0.236,0.26
	c0,0.089,0.014,0.163,0.057,0.222c0.051,0.06,0.144,0.089,0.286,0.089c0.122,0,0.294,0.008,0.529,0.015
	c0.229,0.016,0.486,0.037,0.766,0.066c0.278,0.037,0.543,0.082,0.809,0.142c0.442,0.11,0.778,0.311,1.015,0.606
	c0.244,0.296,0.408,0.732,0.501,1.31c0.101,0.577,0.15,1.347,0.157,2.302l0.473,22.556c-0.351-0.377-0.88-0.969-1.588-1.769
	c-0.708-0.799-1.538-1.738-2.482-2.812s-1.953-2.213-3.019-3.419s-2.139-2.397-3.211-3.589c-1.33-1.474-2.625-2.916-3.898-4.322
	c-1.266-1.413-2.46-2.738-3.576-3.988c-1.115-1.244-2.117-2.361-2.996-3.346c-0.88-0.983-1.596-1.784-2.146-2.405
	s-0.894-1.014-1.029-1.169c-0.151-0.155-0.315-0.348-0.502-0.569c-0.192-0.215-0.37-0.415-0.558-0.585
	c-0.179-0.17-0.321-0.26-0.442-0.267c-0.114-0.008-0.208,0.06-0.271,0.193c-0.072,0.132-0.122,0.354-0.151,0.681
	c-0.035,0.325-0.05,0.776-0.05,1.347l-0.043,25.442c0.007,1.339-0.028,2.396-0.093,3.189c-0.071,0.791-0.193,1.369-0.387,1.745
	c-0.186,0.378-0.45,0.615-0.808,0.704c-0.337,0.111-0.666,0.178-0.994,0.215c-0.329,0.037-0.58,0.051-0.765,0.051
	c-0.108,0-0.194,0.022-0.251,0.067c-0.064,0.044-0.094,0.11-0.094,0.199c0,0.148,0.065,0.252,0.187,0.297
	c0.114,0.044,0.286,0.066,0.501,0.059c0.651,0,1.266-0.015,1.838-0.037c0.579-0.021,1.065-0.037,1.473-0.059
	c0.401-0.022,0.673-0.037,0.81-0.037c0.135,0,0.4,0.015,0.808,0.037c0.407,0.021,0.923,0.037,1.56,0.059
	c0.637,0.022,1.366,0.037,2.181,0.037c0.258,0,0.451-0.022,0.58-0.081c0.128-0.052,0.193-0.141,0.193-0.274
	c0-0.089-0.029-0.155-0.094-0.199c-0.057-0.045-0.143-0.067-0.25-0.067c-0.136,0-0.315-0.007-0.543-0.021
	c-0.237-0.007-0.494-0.037-0.773-0.074c-0.278-0.037-0.551-0.096-0.829-0.17c-0.387-0.111-0.694-0.333-0.93-0.682
	c-0.236-0.348-0.415-0.88-0.53-1.598c-0.113-0.711-0.185-1.665-0.214-2.872L386.206,89.301z M361.046,108.927
	c0,0.244,0,0.592-0.007,1.051c0,0.459-0.015,0.984-0.028,1.569c-0.021,0.584-0.051,1.191-0.094,1.82
	c-0.035,0.651-0.164,1.199-0.372,1.636c-0.215,0.437-0.529,0.71-0.958,0.807c-0.2,0.044-0.414,0.089-0.644,0.126
	c-0.229,0.029-0.443,0.051-0.644,0.051c-0.129,0-0.215,0.03-0.265,0.082c-0.058,0.052-0.079,0.118-0.079,0.185
	c0,0.134,0.058,0.223,0.165,0.274c0.114,0.059,0.285,0.081,0.521,0.081c0.336,0,0.723-0.007,1.174-0.022
	c0.442-0.015,0.894-0.029,1.33-0.044c0.443-0.015,0.822-0.029,1.137-0.045c0.314-0.015,0.501-0.021,0.565-0.021
	s0.258,0.007,0.586,0.021c0.329,0.016,0.744,0.03,1.252,0.045c0.501,0.015,1.052,0.029,1.652,0.044
	c0.594,0.016,1.194,0.022,1.788,0.022c0.236,0,0.408-0.029,0.521-0.096c0.107-0.06,0.165-0.148,0.165-0.26
	c0-0.066-0.021-0.133-0.071-0.185c-0.058-0.052-0.144-0.082-0.272-0.082c-0.135,0-0.314-0.007-0.536-0.021
	c-0.229-0.022-0.465-0.044-0.715-0.066c-0.243-0.03-0.473-0.06-0.68-0.089c-0.422-0.06-0.766-0.207-1.009-0.43
	c-0.25-0.214-0.429-0.503-0.543-0.844c-0.114-0.348-0.187-0.739-0.208-1.169c-0.042-0.629-0.071-1.236-0.093-1.82
	c-0.015-0.585-0.028-1.11-0.028-1.569c-0.008-0.459-0.008-0.807-0.008-1.051v-3.818c-0.007-0.488,0.008-0.97,0.021-1.45
	c0.021-0.474,0.079-0.962,0.172-1.45c0.086-0.497,0.243-1.007,0.451-1.54c0.114-0.281,0.321-0.71,0.622-1.287
	c0.301-0.585,0.665-1.259,1.094-2.035c0.43-0.777,0.887-1.606,1.388-2.479s1.001-1.746,1.517-2.619
	c0.508-0.866,1.001-1.688,1.467-2.457c0.464-0.771,0.886-1.436,1.252-1.998c0.363-0.569,0.65-0.984,0.857-1.243
	c0.308-0.399,0.579-0.732,0.815-1.007c0.236-0.266,0.472-0.503,0.7-0.703c0.223-0.199,0.48-0.385,0.759-0.555
	c0.351-0.222,0.708-0.377,1.065-0.481c0.358-0.096,0.666-0.141,0.909-0.141c0.171,0,0.307-0.037,0.407-0.096
	c0.101-0.06,0.15-0.148,0.15-0.259c-0.008-0.09-0.058-0.155-0.164-0.2c-0.107-0.045-0.236-0.066-0.394-0.066
	c-0.173,0-0.408,0-0.723,0.015c-0.308,0.007-0.651,0.015-1.023,0.029c-0.364,0.015-0.729,0.029-1.072,0.044
	c-0.351,0.008-0.644,0.023-0.887,0.03c-0.25,0.008-0.401,0.015-0.458,0.015c-0.122,0-0.336-0.015-0.637-0.037
	c-0.307-0.022-0.65-0.045-1.045-0.06c-0.386-0.021-0.771-0.036-1.15-0.036c-0.215,0-0.387,0.021-0.501,0.066
	c-0.122,0.045-0.186,0.11-0.186,0.2c0,0.104,0.063,0.191,0.179,0.251c0.114,0.066,0.271,0.126,0.465,0.192
	c0.257,0.066,0.437,0.215,0.536,0.438c0.107,0.221,0.157,0.487,0.15,0.806c0.007,0.289-0.05,0.622-0.158,0.999
	c-0.106,0.378-0.3,0.8-0.571,1.266c-0.129,0.215-0.337,0.577-0.623,1.088c-0.286,0.504-0.629,1.11-1.022,1.813
	c-0.394,0.702-0.815,1.458-1.259,2.265c-0.451,0.806-0.894,1.612-1.344,2.427c-0.444,0.814-0.866,1.583-1.26,2.316
	c-0.387,0.726-0.729,1.361-1.008,1.909c-0.287,0.548-0.487,0.962-0.608,1.236c-0.114-0.193-0.329-0.563-0.644-1.118
	c-0.315-0.547-0.694-1.214-1.138-2.006c-0.443-0.784-0.923-1.627-1.438-2.538c-0.508-0.902-1.016-1.806-1.523-2.716
	c-0.508-0.902-0.98-1.746-1.424-2.538c-0.436-0.784-0.815-1.45-1.115-1.998c-0.308-0.555-0.509-0.925-0.615-1.118
	c-0.172-0.332-0.308-0.636-0.407-0.917c-0.101-0.281-0.15-0.555-0.15-0.814c0-0.178,0.05-0.332,0.15-0.466
	c0.1-0.133,0.235-0.244,0.407-0.333c0.2-0.089,0.351-0.147,0.465-0.199c0.115-0.053,0.179-0.119,0.179-0.2
	c0.008-0.089-0.028-0.163-0.1-0.223c-0.079-0.059-0.229-0.088-0.458-0.088c-0.565,0-1.102,0.015-1.609,0.036
	c-0.508,0.015-0.944,0.037-1.302,0.06c-0.351,0.022-0.586,0.037-0.693,0.037c-0.051,0-0.2-0.007-0.444-0.015
	c-0.25-0.007-0.551-0.022-0.907-0.03c-0.358-0.015-0.73-0.029-1.109-0.044c-0.386-0.015-0.736-0.022-1.051-0.029
	c-0.322-0.015-0.565-0.015-0.737-0.015c-0.193,0-0.336,0.029-0.422,0.088c-0.093,0.06-0.136,0.134-0.136,0.223
	c0.007,0.11,0.05,0.186,0.136,0.237c0.086,0.051,0.179,0.073,0.293,0.073c0.136,0,0.301,0.03,0.509,0.081
	c0.207,0.06,0.421,0.142,0.657,0.245c0.235,0.11,0.466,0.236,0.68,0.384c0.394,0.268,0.844,0.674,1.345,1.229
	c0.508,0.548,1.029,1.235,1.573,2.057c0.222,0.333,0.515,0.8,0.88,1.399c0.357,0.591,0.772,1.265,1.223,2.02
	c0.451,0.755,0.923,1.539,1.409,2.361c0.479,0.813,0.959,1.62,1.417,2.404c0.457,0.785,0.879,1.503,1.258,2.161
	c0.38,0.659,0.694,1.199,0.93,1.628c0.243,0.437,0.387,0.703,0.437,0.814c0.187,0.414,0.358,0.836,0.508,1.25
	c0.144,0.415,0.265,0.889,0.351,1.422c0.086,0.54,0.129,1.198,0.129,1.99V108.927z M333.141,79.622
	c0.443-0.007,0.837-0.119,1.174-0.325c0.328-0.215,0.593-0.503,0.771-0.858c0.186-0.363,0.286-0.77,0.286-1.214
	c-0.007-0.444-0.107-0.836-0.3-1.155c-0.2-0.325-0.465-0.577-0.802-0.754c-0.336-0.178-0.708-0.267-1.13-0.267
	c-0.515,0.008-0.93,0.133-1.252,0.377c-0.321,0.244-0.558,0.547-0.715,0.895c-0.15,0.355-0.222,0.696-0.222,1.037
	c0,0.348,0.071,0.695,0.222,1.036c0.157,0.348,0.394,0.637,0.715,0.866C332.211,79.489,332.626,79.615,333.141,79.622z
	 M325.588,114.7c3.269-5.106,6.508-10.212,9.727-15.318s6.381-10.213,9.499-15.318c0.086-0.126,0.136-0.23,0.15-0.304
	c0.021-0.066,0.028-0.148,0.021-0.229c0.007-0.134-0.058-0.222-0.187-0.281c-0.128-0.052-0.357-0.074-0.672-0.074h-11.974
	c-0.437,0-0.973,0-1.623,0.007c-0.645,0-1.438-0.007-2.39-0.028c-0.95-0.016-2.103-0.053-3.454-0.111
	c-0.379-0.016-0.68-0.052-0.894-0.104c-0.223-0.045-0.394-0.097-0.53-0.141c-0.128-0.037-0.257-0.067-0.379-0.067
	c-0.121-0.007-0.214,0.06-0.278,0.186c-0.058,0.133-0.107,0.348-0.15,0.658c-0.043,0.274-0.1,0.63-0.172,1.073
	c-0.071,0.443-0.143,0.918-0.222,1.429c-0.078,0.511-0.15,0.998-0.222,1.479c-0.071,0.474-0.129,0.889-0.172,1.236
	c-0.042,0.34-0.071,0.569-0.071,0.688c0,0.177,0.015,0.317,0.05,0.421c0.036,0.104,0.101,0.156,0.208,0.156
	c0.106,0.007,0.2-0.045,0.286-0.148c0.078-0.111,0.143-0.325,0.186-0.651c0.043-0.348,0.157-0.74,0.351-1.177
	c0.187-0.437,0.458-0.857,0.801-1.272c0.352-0.415,0.779-0.77,1.295-1.059c0.472-0.251,1.044-0.437,1.724-0.569
	c0.687-0.126,1.417-0.215,2.188-0.259c0.772-0.045,1.53-0.067,2.268-0.06h9.313c-1.988,3.345-4.027,6.682-6.115,10.02
	c-2.082,3.338-4.191,6.676-6.323,10.006c-2.131,3.33-4.263,6.66-6.401,9.99c-0.25,0.385-0.415,0.666-0.493,0.836
	c-0.078,0.171-0.114,0.311-0.107,0.407c0,0.148,0.064,0.252,0.192,0.296c0.129,0.044,0.322,0.066,0.58,0.06
	c3.748,0.007,7.438,0.044,11.072,0.11c3.633,0.067,7.238,0.104,10.814,0.111c0.321,0.008,0.558-0.015,0.715-0.066
	c0.157-0.045,0.271-0.148,0.344-0.318c0.071-0.163,0.149-0.422,0.229-0.77c0.064-0.281,0.15-0.644,0.243-1.073
	s0.186-0.888,0.286-1.377c0.093-0.495,0.171-0.969,0.229-1.435c0.064-0.46,0.099-0.874,0.099-1.222c0-0.414-0.021-0.688-0.07-0.829
	c-0.058-0.141-0.144-0.199-0.271-0.191c-0.108,0-0.187,0.065-0.244,0.191c-0.057,0.119-0.1,0.297-0.143,0.519
	c-0.028,0.215-0.086,0.474-0.172,0.77s-0.193,0.592-0.314,0.888c-0.114,0.296-0.243,0.541-0.372,0.74
	c-0.222,0.333-0.486,0.637-0.808,0.902c-0.315,0.268-0.73,0.496-1.231,0.688c-0.5,0.186-1.137,0.333-1.909,0.43
	c-0.766,0.104-1.71,0.155-2.832,0.155H325.588z M308.068,83.619c-0.035-0.422-0.1-0.726-0.179-0.918
	c-0.071-0.192-0.186-0.281-0.336-0.281c-0.143,0.007-0.271,0.074-0.371,0.207c-0.094,0.134-0.187,0.296-0.272,0.503l-12.617,27.885
	l-13.131-27.929c-0.108-0.244-0.208-0.414-0.308-0.518c-0.101-0.104-0.208-0.148-0.337-0.148c-0.128,0-0.235,0.074-0.314,0.215
	c-0.086,0.141-0.136,0.341-0.157,0.584l-3.09,28.951c-0.051,0.569-0.114,1.116-0.208,1.643c-0.086,0.533-0.242,0.977-0.472,1.347
	c-0.229,0.362-0.572,0.6-1.037,0.695c-0.314,0.067-0.564,0.104-0.758,0.119c-0.187,0.014-0.365,0.014-0.529,0.014
	c-0.115,0-0.208,0.022-0.294,0.06c-0.085,0.045-0.129,0.097-0.136,0.163c0.007,0.155,0.072,0.259,0.208,0.318
	c0.128,0.059,0.307,0.081,0.521,0.081c0.301,0,0.63-0.007,1.002-0.022c0.364-0.015,0.729-0.029,1.094-0.044
	c0.357-0.015,0.672-0.029,0.943-0.045c0.272-0.015,0.466-0.021,0.565-0.021c0.093,0,0.272,0.007,0.544,0.021
	c0.272,0.016,0.601,0.03,0.987,0.045c0.386,0.015,0.787,0.029,1.216,0.044c0.429,0.016,0.844,0.022,1.245,0.022
	c0.257,0,0.45-0.022,0.579-0.081c0.129-0.06,0.192-0.163,0.192-0.318c0-0.066-0.036-0.118-0.106-0.163
	c-0.065-0.037-0.144-0.06-0.236-0.06c-0.136,0-0.351-0.014-0.637-0.044c-0.294-0.029-0.622-0.089-0.994-0.178
	c-0.329-0.074-0.594-0.236-0.802-0.488c-0.2-0.251-0.307-0.548-0.314-0.888c0-0.377,0-0.763,0.008-1.147
	c0-0.385,0.014-0.763,0.035-1.117l1.718-20.603h0.171c0.071,0.178,0.222,0.525,0.443,1.036s0.494,1.133,0.822,1.857
	c0.322,0.726,0.665,1.51,1.045,2.339c0.372,0.828,0.743,1.657,1.108,2.486c0.372,0.821,0.723,1.583,1.037,2.286
	c0.314,0.704,0.586,1.288,0.801,1.762c0.215,0.466,0.35,0.762,0.408,0.888c0.042,0.082,0.164,0.341,0.372,0.77
	c0.199,0.422,0.464,0.962,0.779,1.613c0.314,0.651,0.65,1.362,1.022,2.117c0.365,0.762,0.729,1.517,1.095,2.264
	c0.365,0.748,0.701,1.429,1.008,2.051c0.308,0.621,0.552,1.117,0.744,1.486c0.272,0.526,0.479,0.94,0.645,1.244
	c0.156,0.296,0.285,0.503,0.393,0.621c0.101,0.126,0.2,0.186,0.293,0.178c0.122,0.008,0.236-0.052,0.337-0.178
	c0.107-0.125,0.235-0.355,0.4-0.695c0.157-0.341,0.386-0.836,0.68-1.479l10.514-23.09h0.129l2.06,22.912
	c0.029,0.273,0.043,0.525,0.043,0.762c0,0.237-0.021,0.43-0.058,0.577c-0.028,0.155-0.085,0.244-0.156,0.259
	c-0.107,0.022-0.18,0.06-0.229,0.104c-0.05,0.053-0.071,0.119-0.071,0.208c-0.008,0.11,0.064,0.199,0.229,0.273
	c0.172,0.066,0.493,0.126,0.973,0.17c0.329,0.03,0.751,0.052,1.266,0.082c0.516,0.021,1.073,0.044,1.675,0.066
	c0.593,0.022,1.18,0.044,1.752,0.06c0.572,0.021,1.08,0.036,1.523,0.044c0.437,0.008,0.758,0.015,0.951,0.015
	c0.265,0,0.479-0.037,0.644-0.104c0.165-0.066,0.25-0.163,0.257-0.296c0-0.089-0.028-0.148-0.092-0.178
	c-0.058-0.029-0.144-0.045-0.251-0.045c-0.222,0.008-0.586-0.007-1.087-0.051c-0.501-0.037-1.065-0.156-1.702-0.349
	c-0.458-0.162-0.83-0.421-1.116-0.77c-0.286-0.355-0.508-0.762-0.672-1.214c-0.157-0.458-0.279-0.925-0.351-1.398
	c-0.079-0.474-0.136-0.918-0.179-1.324L308.068,83.619z M238.106,98.538c0.007-2.436,0.33-4.559,0.952-6.387
	s1.502-3.345,2.625-4.566c1.13-1.221,2.454-2.131,3.977-2.745c1.517-0.606,3.176-0.91,4.979-0.91c1.366,0,2.683,0.229,3.963,0.681
	c1.273,0.451,2.46,1.125,3.562,2.013c1.094,0.896,2.06,1.998,2.882,3.315c0.83,1.325,1.474,2.85,1.939,4.581
	c0.457,1.731,0.693,3.663,0.7,5.795c-0.007,2.146-0.208,4.018-0.608,5.616c-0.394,1.592-0.93,2.953-1.603,4.078
	c-0.672,1.117-1.43,2.042-2.26,2.768c-0.837,0.725-1.702,1.287-2.589,1.687c-0.887,0.407-1.738,0.688-2.568,0.852
	c-0.822,0.163-1.566,0.237-2.217,0.229c-1.938-0.008-3.741-0.407-5.407-1.198c-1.659-0.8-3.111-1.939-4.355-3.427
	c-1.245-1.487-2.217-3.271-2.911-5.358S238.121,101.127,238.106,98.538z M234.03,99.781c0,1.339,0.136,2.693,0.415,4.07
	c0.278,1.369,0.708,2.7,1.288,4.003c0.579,1.303,1.316,2.517,2.217,3.648c0.894,1.133,1.96,2.124,3.189,2.982
	c1.23,0.852,2.64,1.524,4.227,2.006c1.581,0.488,3.355,0.732,5.315,0.74c2.074-0.008,3.991-0.318,5.75-0.933
	c1.768-0.614,3.348-1.48,4.742-2.598c1.401-1.117,2.597-2.427,3.584-3.944c0.987-1.51,1.737-3.168,2.26-4.98
	c0.521-1.806,0.779-3.708,0.786-5.705c-0.007-2.072-0.278-3.975-0.829-5.706c-0.543-1.731-1.316-3.271-2.324-4.626
	c-1.009-1.354-2.211-2.5-3.605-3.44s-2.939-1.649-4.642-2.139c-1.703-0.488-3.526-0.74-5.465-0.74
	c-1.974,0.007-3.762,0.273-5.364,0.784c-1.602,0.519-3.033,1.222-4.285,2.117c-1.252,0.896-2.332,1.924-3.247,3.078
	c-0.916,1.161-1.667,2.391-2.261,3.686c-0.593,1.295-1.037,2.598-1.323,3.915C234.173,97.309,234.03,98.575,234.03,99.781z
	 M216.896,99.559l6.995-3.553c0.107-0.044,0.179-0.104,0.221-0.17c0.036-0.067,0.036-0.141-0.006-0.229l-0.472-1.021
	c-0.022-0.066-0.064-0.118-0.122-0.147c-0.064-0.029-0.136-0.029-0.221,0.014l-6.395,3.198v-1.732c0-1.376,0-2.553,0-3.522
	c0-0.969,0-1.783,0.007-2.435c0-0.659,0.007-1.206,0.015-1.643c0-0.43,0.015-0.807,0.021-1.118c0.015-0.303,0.029-0.599,0.043-0.873
	c0.022-0.518,0.094-0.947,0.193-1.303c0.107-0.348,0.28-0.621,0.516-0.82c0.229-0.201,0.558-0.334,0.966-0.407
	c0.265-0.045,0.529-0.082,0.787-0.104c0.264-0.022,0.472-0.03,0.629-0.03c0.086,0,0.165-0.022,0.237-0.066
	c0.063-0.044,0.099-0.111,0.107-0.2c0-0.133-0.058-0.222-0.165-0.281c-0.115-0.052-0.286-0.073-0.522-0.073
	c-0.265,0-0.579,0.007-0.958,0.015c-0.372,0.007-0.758,0.015-1.166,0.029s-0.793,0.029-1.158,0.044
	c-0.365,0.008-0.666,0.023-0.909,0.03c-0.243,0.008-0.394,0.015-0.443,0.015c-0.065,0-0.25-0.007-0.58-0.021
	c-0.322-0.016-0.723-0.03-1.201-0.045c-0.48-0.016-0.987-0.037-1.523-0.045c-0.537-0.015-1.052-0.021-1.545-0.021
	c-0.236,0-0.407,0.021-0.522,0.073c-0.107,0.06-0.164,0.148-0.164,0.281c0.007,0.089,0.042,0.156,0.107,0.2
	c0.071,0.044,0.15,0.066,0.236,0.066c0.136,0,0.293,0,0.472,0.015c0.186,0.008,0.365,0.022,0.543,0.045
	c0.179,0.015,0.322,0.044,0.444,0.074c0.465,0.096,0.829,0.251,1.086,0.459c0.265,0.199,0.444,0.474,0.558,0.813
	c0.107,0.333,0.179,0.755,0.201,1.258c0.014,0.274,0.028,0.57,0.043,0.873c0.006,0.312,0.021,0.688,0.028,1.118
	c0,0.437,0.007,0.983,0.007,1.643c0.007,0.651,0.007,1.466,0.007,2.435c0,0.97,0,2.146,0,3.522v3.464l-4.549,2.441
	c-0.064,0.022-0.1,0.074-0.107,0.141c-0.007,0.074,0,0.141,0.021,0.215l0.429,0.977c0.064,0.104,0.129,0.163,0.193,0.163
	c0.064,0.008,0.128,0,0.193-0.029l3.819-2.042v2.486c0,1.429,0,2.753-0.007,3.974c-0.007,1.229-0.029,2.323-0.057,3.278
	c-0.029,0.962-0.079,1.754-0.151,2.383c-0.049,0.43-0.121,0.821-0.207,1.162c-0.086,0.348-0.208,0.629-0.372,0.851
	c-0.157,0.223-0.379,0.37-0.665,0.43c-0.2,0.044-0.415,0.089-0.644,0.126c-0.229,0.029-0.443,0.051-0.644,0.051
	c-0.128,0-0.214,0.03-0.265,0.082c-0.057,0.052-0.078,0.118-0.078,0.185c0,0.134,0.057,0.223,0.165,0.274
	c0.114,0.059,0.286,0.081,0.522,0.081c0.329,0,0.708-0.007,1.144-0.029c0.429-0.015,0.866-0.037,1.302-0.06
	c0.436,0,0.815-0.007,1.137-0.022c0.322-0.015,0.529-0.021,0.623-0.021c0.615,0,1.272,0.007,1.981,0.029
	c0.701,0.022,1.501,0.06,2.396,0.104c0.894,0.022,1.917,0.052,3.076,0.081c1.166,0.029,2.511,0.053,4.048,0.053
	c0.565,0,1.008-0.016,1.337-0.045c0.336-0.03,0.587-0.089,0.751-0.17c0.171-0.089,0.3-0.208,0.386-0.363
	c0.086-0.162,0.157-0.369,0.229-0.621c0.085-0.333,0.171-0.718,0.242-1.17c0.08-0.443,0.151-0.895,0.208-1.347
	c0.057-0.458,0.107-0.857,0.143-1.206c0.028-0.348,0.05-0.584,0.05-0.718c0-0.244-0.015-0.414-0.05-0.518
	c-0.036-0.104-0.1-0.148-0.208-0.148c-0.129,0-0.214,0.052-0.272,0.155c-0.057,0.104-0.093,0.244-0.114,0.422
	c-0.043,0.288-0.122,0.585-0.223,0.91c-0.107,0.318-0.235,0.629-0.386,0.933c-0.15,0.312-0.322,0.577-0.508,0.821
	c-0.343,0.422-0.78,0.726-1.302,0.918c-0.515,0.192-1.102,0.311-1.76,0.355c-0.658,0.044-1.373,0.065-2.131,0.059
	c-1.102,0-1.996-0.037-2.668-0.104c-0.68-0.073-1.209-0.185-1.588-0.34c-0.378-0.148-0.679-0.341-0.894-0.577
	c-0.394-0.415-0.658-1.466-0.78-3.153c-0.122-1.68-0.179-4.025-0.165-7.015V99.559z"/>
<path fill="#000003" d="M488.975,101.913c-0.064,0-0.115-0.022-0.144-0.074c-0.027-0.045-0.027-0.127,0.015-0.237l3.776-11.988
	c0.215-0.666,0.43-0.666,0.644,0l4.077,11.988c0.028,0.089,0.028,0.163,0.015,0.222c-0.021,0.06-0.079,0.09-0.187,0.09H488.975z
	 M482.966,111.725c-0.25,0.747-0.528,1.413-0.836,2.013c-0.309,0.592-0.688,1.08-1.131,1.45c-0.436,0.378-0.986,0.614-1.637,0.711
	c-0.187,0.022-0.395,0.044-0.638,0.06c-0.243,0.021-0.443,0.028-0.608,0.028c-0.106,0-0.199,0.022-0.271,0.067
	c-0.07,0.044-0.114,0.11-0.114,0.199c0,0.134,0.064,0.223,0.201,0.274c0.128,0.059,0.336,0.081,0.614,0.081
	c0.508,0,1.023-0.007,1.545-0.022c0.516-0.015,1.002-0.029,1.459-0.044c0.458-0.015,0.852-0.029,1.174-0.045
	c0.321-0.015,0.55-0.021,0.672-0.021s0.314,0.007,0.579,0.021c0.258,0.016,0.558,0.03,0.887,0.045s0.658,0.029,0.987,0.044
	c0.337,0.016,0.63,0.022,0.895,0.022c0.193,0,0.351-0.022,0.465-0.081c0.114-0.052,0.179-0.141,0.179-0.274
	c0-0.089-0.036-0.155-0.101-0.199c-0.071-0.045-0.179-0.067-0.328-0.067h-0.43c-0.25,0-0.501-0.044-0.744-0.133
	c-0.25-0.096-0.458-0.236-0.622-0.429c-0.171-0.186-0.257-0.43-0.265-0.726c0-0.406,0.051-0.858,0.157-1.369
	c0.101-0.511,0.25-1.043,0.443-1.605l2.575-7.859c0.043-0.111,0.101-0.2,0.164-0.26c0.072-0.065,0.158-0.096,0.266-0.096h9.227
	c0.106,0,0.186,0.022,0.243,0.067c0.057,0.044,0.1,0.11,0.143,0.199l3.991,10.923c0.121,0.355,0.143,0.637,0.063,0.836
	c-0.071,0.2-0.179,0.318-0.321,0.363c-0.085,0.022-0.156,0.06-0.215,0.104c-0.057,0.052-0.085,0.118-0.085,0.207
	c0,0.126,0.114,0.207,0.335,0.236c0.223,0.037,0.545,0.06,0.952,0.074c0.751,0.022,1.487,0.037,2.21,0.052
	c0.729,0.015,1.402,0.022,2.031,0.022c0.623,0.008,1.151,0.015,1.589,0.015c0.436,0,0.743,0,0.908,0
	c0.242,0,0.442-0.022,0.607-0.081c0.157-0.052,0.243-0.141,0.25-0.274c0-0.11-0.043-0.178-0.114-0.215
	c-0.078-0.036-0.186-0.052-0.314-0.052c-0.222,0-0.479-0.014-0.779-0.051c-0.301-0.037-0.608-0.104-0.938-0.215
	c-0.222-0.06-0.473-0.17-0.737-0.326c-0.271-0.163-0.558-0.414-0.865-0.754c-0.308-0.348-0.636-0.829-0.987-1.451
	c-0.35-0.614-0.715-1.413-1.101-2.397c-0.329-0.852-0.716-1.857-1.152-3.02c-0.443-1.161-0.915-2.42-1.423-3.774
	c-0.508-1.354-1.03-2.76-1.566-4.195c-0.544-1.443-1.073-2.879-1.595-4.3c-0.529-1.413-1.03-2.768-1.51-4.056
	c-0.472-1.28-0.901-2.442-1.287-3.485c-0.387-1.036-0.7-1.902-0.958-2.59c-0.258-0.682-0.422-1.132-0.508-1.354
	c-0.172-0.451-0.309-0.8-0.415-1.028c-0.107-0.229-0.208-0.385-0.286-0.459c-0.079-0.082-0.158-0.119-0.243-0.111
	c-0.086-0.008-0.165,0.037-0.243,0.126c-0.079,0.081-0.179,0.252-0.286,0.503c-0.107,0.252-0.243,0.622-0.415,1.103L482.966,111.725
	z M453.216,103.733c0,1.429,0,2.753-0.008,3.98c-0.007,1.222-0.028,2.316-0.057,3.271c-0.028,0.962-0.079,1.754-0.15,2.383
	c-0.05,0.43-0.121,0.821-0.208,1.169c-0.085,0.341-0.207,0.63-0.371,0.844c-0.157,0.223-0.379,0.37-0.665,0.43
	c-0.201,0.044-0.415,0.089-0.644,0.126c-0.229,0.029-0.444,0.051-0.645,0.051c-0.128,0-0.214,0.03-0.265,0.082
	c-0.057,0.052-0.078,0.118-0.078,0.185c0,0.134,0.057,0.223,0.164,0.274c0.114,0.059,0.286,0.081,0.522,0.081
	c0.328,0,0.708-0.007,1.137-0.022c0.429-0.015,0.858-0.029,1.28-0.044s0.787-0.029,1.095-0.045c0.314-0.015,0.516-0.021,0.607-0.021
	c0.093,0,0.301,0.007,0.623,0.021c0.321,0.016,0.715,0.03,1.188,0.045c0.472,0.015,0.973,0.029,1.517,0.044
	c0.543,0.016,1.079,0.022,1.608,0.022c0.236,0,0.407-0.029,0.522-0.096c0.107-0.06,0.165-0.148,0.165-0.26
	c0-0.066-0.021-0.133-0.079-0.185c-0.05-0.052-0.137-0.082-0.265-0.082c-0.2,0-0.45-0.021-0.759-0.051
	c-0.3-0.037-0.607-0.082-0.915-0.126c-0.423-0.06-0.751-0.207-0.98-0.43c-0.229-0.214-0.386-0.503-0.485-0.844
	c-0.101-0.348-0.172-0.739-0.208-1.169c-0.071-0.629-0.121-1.421-0.15-2.383c-0.028-0.955-0.05-2.05-0.057-3.271
	c-0.007-1.228-0.007-2.552-0.007-3.98v-4.352h0.214c0.3,0.377,0.723,0.896,1.272,1.539c0.544,0.644,1.174,1.369,1.889,2.176
	c0.709,0.813,1.46,1.665,2.246,2.545c0.795,0.889,1.58,1.762,2.368,2.627c0.786,0.866,1.529,1.673,2.231,2.421
	c0.708,0.754,1.323,1.398,1.859,1.946c0.528,0.54,0.938,0.933,1.223,1.177c0.458,0.377,0.88,0.718,1.273,1.028
	c0.386,0.311,0.771,0.577,1.158,0.807c0.395,0.229,0.809,0.422,1.252,0.57c0.443,0.147,0.944,0.243,1.51,0.303
	c0.457,0.045,0.922,0.066,1.38,0.074c0.465,0.015,0.987,0.015,1.58,0.015h2.189c0.357,0,0.607-0.029,0.743-0.096
	c0.144-0.06,0.208-0.148,0.2-0.26c-0.007-0.089-0.057-0.155-0.164-0.199c-0.107-0.045-0.235-0.067-0.393-0.067
	c-0.108,0-0.301-0.014-0.572-0.036c-0.28-0.029-0.602-0.089-0.973-0.171c-0.365-0.089-0.737-0.207-1.116-0.37
	c-0.501-0.214-0.959-0.437-1.359-0.681c-0.407-0.236-0.822-0.532-1.259-0.88c-0.436-0.355-0.951-0.814-1.545-1.377
	c-0.602-0.555-1.345-1.266-2.231-2.124c-0.258-0.251-0.644-0.637-1.151-1.154c-0.508-0.525-1.095-1.14-1.76-1.843
	c-0.673-0.703-1.38-1.443-2.124-2.234c-0.736-0.785-1.474-1.569-2.21-2.354c-0.729-0.777-1.409-1.51-2.039-2.183
	c-0.629-0.682-1.165-1.258-1.603-1.739c-0.442-0.488-0.751-0.821-0.915-1.015c0.157-0.192,0.473-0.54,0.938-1.028
	c0.464-0.495,1.022-1.08,1.674-1.746c0.651-0.674,1.33-1.377,2.045-2.103c0.716-0.732,1.402-1.428,2.06-2.102
	c0.658-0.666,1.23-1.243,1.717-1.731s0.823-0.829,1.009-1.014c0.629-0.637,1.188-1.191,1.667-1.665
	c0.479-0.474,0.951-0.881,1.416-1.236c0.458-0.348,0.979-0.658,1.552-0.917c0.437-0.2,0.865-0.355,1.28-0.459
	c0.422-0.111,0.795-0.163,1.123-0.163c0.165,0,0.279-0.022,0.344-0.073c0.057-0.052,0.085-0.127,0.085-0.237
	c0-0.111-0.043-0.192-0.143-0.237c-0.101-0.052-0.265-0.073-0.501-0.073c-0.278,0-0.637,0.007-1.065,0.021
	c-0.429,0.008-0.873,0.029-1.315,0.045c-0.444,0.015-0.831,0.029-1.152,0.045c-0.329,0.015-0.522,0.021-0.587,0.021
	c-0.351,0-0.715-0.015-1.101-0.037c-0.387-0.022-0.766-0.045-1.131-0.06c-0.364-0.021-0.693-0.036-0.986-0.036
	c-0.15,0-0.279,0.021-0.372,0.073c-0.093,0.045-0.144,0.126-0.144,0.237c0,0.089,0.043,0.155,0.115,0.207
	c0.071,0.06,0.164,0.104,0.271,0.148c0.171,0.059,0.308,0.17,0.407,0.317c0.101,0.141,0.151,0.348,0.151,0.615
	c-0.008,0.251-0.115,0.547-0.337,0.873c-0.215,0.333-0.493,0.695-0.844,1.088c-0.351,0.392-0.73,0.807-1.138,1.235
	c-0.265,0.297-0.68,0.747-1.23,1.34c-0.55,0.592-1.188,1.266-1.895,2.027c-0.716,0.763-1.452,1.54-2.203,2.339
	s-1.459,1.554-2.132,2.265c-0.665,0.71-1.23,1.31-1.694,1.805c-0.459,0.496-0.759,0.822-0.888,0.97h-0.171v-2.664
	c0-1.376,0-2.553,0-3.522c0-0.969,0-1.783,0.007-2.435c0-0.659,0.007-1.206,0.015-1.643c0-0.43,0.014-0.807,0.021-1.11
	c0.014-0.311,0.028-0.606,0.042-0.881c0.029-0.77,0.165-1.361,0.394-1.769c0.229-0.399,0.629-0.658,1.194-0.762
	c0.251-0.045,0.458-0.082,0.615-0.104c0.164-0.022,0.314-0.03,0.458-0.03c0.086,0,0.165-0.022,0.236-0.066
	c0.063-0.044,0.1-0.111,0.107-0.2c0-0.133-0.058-0.222-0.165-0.281c-0.114-0.052-0.286-0.073-0.522-0.073
	c-0.329,0-0.708,0.007-1.137,0.021c-0.43,0.008-0.858,0.029-1.28,0.045c-0.43,0.015-0.794,0.029-1.116,0.045
	c-0.314,0.015-0.522,0.021-0.63,0.021c-0.07,0-0.265-0.007-0.571-0.021c-0.315-0.016-0.701-0.03-1.158-0.045
	c-0.466-0.016-0.952-0.037-1.474-0.045c-0.522-0.015-1.022-0.021-1.517-0.021c-0.236,0-0.407,0.021-0.522,0.073
	c-0.107,0.06-0.165,0.148-0.165,0.281c0.008,0.089,0.043,0.156,0.108,0.2c0.071,0.044,0.149,0.066,0.235,0.066
	c0.136,0,0.293,0,0.472,0.015c0.187,0.008,0.366,0.022,0.544,0.045c0.18,0.015,0.322,0.044,0.443,0.074
	c0.465,0.096,0.83,0.251,1.088,0.459c0.265,0.199,0.442,0.474,0.558,0.813c0.106,0.333,0.179,0.755,0.2,1.258
	c0.015,0.274,0.029,0.57,0.043,0.881c0.007,0.304,0.021,0.681,0.028,1.11c0,0.437,0.007,0.983,0.007,1.643
	c0.008,0.651,0.008,1.466,0.008,2.435c0,0.97,0,2.146,0,3.522V103.733z M430.503,117.231c1.166,0.007,2.311-0.141,3.419-0.437
	c1.109-0.289,2.132-0.771,3.062-1.429c0.736-0.548,1.345-1.154,1.816-1.813c0.479-0.658,0.852-1.324,1.116-2.005
	c0.271-0.681,0.458-1.325,0.565-1.939c0.1-0.613,0.157-1.153,0.149-1.613c0.008-0.88-0.078-1.731-0.265-2.545
	c-0.186-0.821-0.508-1.636-0.965-2.458c-0.465-0.813-1.102-1.672-1.918-2.56c-0.821-0.889-1.859-1.843-3.118-2.871l-1.201-0.978
	c-1.023-0.829-1.874-1.561-2.554-2.212s-1.216-1.259-1.609-1.821c-0.393-0.555-0.672-1.109-0.836-1.665
	c-0.165-0.547-0.244-1.139-0.236-1.761c0.007-1.088,0.25-2.014,0.708-2.775c0.465-0.77,1.095-1.354,1.888-1.761
	c0.787-0.407,1.688-0.614,2.683-0.614c0.979,0.007,1.802,0.103,2.468,0.295c0.665,0.193,1.194,0.422,1.603,0.696
	c0.4,0.274,0.7,0.533,0.9,0.784c0.207,0.251,0.336,0.444,0.394,0.577c0.085,0.171,0.171,0.393,0.25,0.674s0.143,0.555,0.2,0.843
	c0.058,0.282,0.094,0.519,0.107,0.704c0.015,0.178,0.05,0.318,0.094,0.422c0.043,0.104,0.128,0.155,0.25,0.155
	c0.107,0,0.186-0.082,0.229-0.244c0.05-0.163,0.072-0.422,0.072-0.777c0.007-1.502,0.035-2.643,0.085-3.404
	c0.051-0.762,0.079-1.199,0.086-1.303c0.007-0.11-0.021-0.192-0.086-0.236c-0.057-0.052-0.171-0.074-0.343-0.074
	c-0.165,0-0.351-0.015-0.572-0.044c-0.223-0.03-0.529-0.089-0.93-0.178c-0.53-0.134-1.123-0.244-1.768-0.326
	c-0.65-0.074-1.395-0.118-2.224-0.118c-1.824,0.007-3.397,0.348-4.728,1.014c-1.323,0.666-2.347,1.599-3.062,2.798
	c-0.723,1.191-1.088,2.583-1.095,4.181c-0.007,0.748,0.071,1.495,0.237,2.235c0.156,0.74,0.442,1.494,0.85,2.265
	c0.401,0.77,0.974,1.576,1.703,2.427c0.729,0.844,1.659,1.746,2.789,2.709l1.931,1.643c0.924,0.784,1.695,1.495,2.332,2.146
	c0.63,0.651,1.137,1.28,1.524,1.88c0.378,0.606,0.657,1.228,0.829,1.864c0.171,0.644,0.258,1.339,0.25,2.102
	c0,0.719-0.129,1.428-0.379,2.124c-0.25,0.695-0.637,1.324-1.145,1.895s-1.145,1.021-1.917,1.361
	c-0.765,0.341-1.666,0.519-2.696,0.525c-0.722,0-1.431-0.081-2.117-0.244c-0.687-0.17-1.315-0.429-1.896-0.784
	c-0.579-0.362-1.073-0.829-1.48-1.406s-0.694-1.272-0.858-2.094c-0.064-0.318-0.1-0.614-0.114-0.903
	c-0.015-0.288-0.015-0.532-0.015-0.739c0-0.178-0.014-0.304-0.057-0.378c-0.036-0.074-0.122-0.111-0.243-0.111
	c-0.107,0-0.187,0.06-0.236,0.171c-0.05,0.117-0.086,0.296-0.107,0.54c-0.014,0.244-0.042,0.584-0.071,1.043
	c-0.036,0.451-0.064,0.992-0.094,1.613c-0.035,0.622-0.049,1.31-0.049,2.051c0,0.391,0.007,0.694,0.035,0.902
	c0.021,0.207,0.086,0.362,0.172,0.474c0.094,0.111,0.236,0.215,0.437,0.311c0.88,0.437,1.81,0.747,2.782,0.933
	C428.5,117.149,429.496,117.238,430.503,117.231z"/>
<path fill="#000003" d="M320.418,45.477c0-0.866,0-1.769,0-2.709c0-0.939,0-1.85,0.008-2.737c0-0.881,0.007-1.68,0.014-2.376
	c0-0.703,0.015-1.25,0.021-1.635c0-0.244,0.036-0.429,0.114-0.563c0.079-0.133,0.208-0.244,0.401-0.326
	c0.093-0.044,0.243-0.088,0.458-0.126c0.214-0.037,0.465-0.066,0.743-0.096c0.279-0.03,0.559-0.052,0.837-0.066
	c0.278-0.015,0.529-0.022,0.751-0.022c1.28-0.008,2.539,0.044,3.784,0.163c1.237,0.119,2.453,0.355,3.633,0.696
	c1.188,0.348,2.332,0.851,3.44,1.517c1.108,0.673,2.167,1.546,3.176,2.642c0.45,0.474,0.908,1.065,1.388,1.761
	c0.479,0.696,0.923,1.51,1.33,2.435c0.415,0.925,0.751,1.969,1.009,3.13c0.258,1.169,0.386,2.457,0.394,3.863
	c0,1.029-0.072,2.049-0.222,3.063c-0.15,1.014-0.365,1.991-0.658,2.923c-0.286,0.939-0.644,1.798-1.073,2.583
	c-0.429,0.792-0.923,1.473-1.48,2.043c-0.851,0.873-1.81,1.621-2.883,2.235c-1.079,0.614-2.231,1.08-3.469,1.405
	c-1.237,0.326-2.524,0.489-3.862,0.489c-1.259,0-2.324-0.052-3.196-0.156c-0.873-0.104-1.588-0.244-2.14-0.414
	c-0.558-0.171-0.986-0.363-1.294-0.57c-0.308-0.214-0.529-0.421-0.665-0.637c-0.114-0.177-0.2-0.458-0.266-0.843
	c-0.063-0.392-0.114-0.813-0.143-1.273c-0.028-0.459-0.05-0.873-0.063-1.257c-0.015-0.215-0.021-0.615-0.029-1.2
	c-0.015-0.584-0.021-1.302-0.028-2.168c-0.008-0.866-0.015-1.828-0.021-2.894c-0.008-1.066-0.008-2.19-0.008-3.375V45.477z
	 M316.814,54.002c0,1.428,0,2.753-0.007,3.981c-0.007,1.221-0.028,2.317-0.058,3.271c-0.028,0.962-0.078,1.753-0.15,2.383
	c-0.05,0.429-0.121,0.821-0.207,1.169c-0.086,0.34-0.207,0.628-0.371,0.843c-0.158,0.222-0.38,0.37-0.666,0.429
	c-0.2,0.045-0.414,0.089-0.644,0.126c-0.229,0.029-0.443,0.051-0.644,0.051c-0.129,0-0.215,0.03-0.266,0.082
	c-0.057,0.052-0.078,0.119-0.078,0.186c0,0.133,0.057,0.222,0.164,0.273c0.115,0.06,0.286,0.082,0.522,0.082
	c0.329-0.007,0.723-0.022,1.166-0.044c0.444-0.029,0.887-0.044,1.323-0.044c0.458-0.022,0.852-0.038,1.166-0.038
	c0.314-0.007,0.5-0.007,0.551-0.007c0.078,0,0.279,0.015,0.601,0.037c0.322,0.03,0.737,0.059,1.244,0.104
	c0.509,0.036,1.08,0.081,1.717,0.125c0.622,0.045,1.273,0.089,1.96,0.126c0.68,0.045,1.366,0.074,2.046,0.104
	c0.687,0.022,1.337,0.037,1.959,0.037c1.825-0.015,3.44-0.185,4.851-0.518c1.415-0.333,2.646-0.762,3.697-1.288
	c1.051-0.525,1.938-1.073,2.675-1.658c0.729-0.584,1.323-1.132,1.78-1.643c0.608-0.658,1.188-1.413,1.738-2.272
	c0.551-0.865,1.045-1.82,1.48-2.871c0.438-1.059,0.78-2.198,1.03-3.434c0.251-1.229,0.379-2.546,0.387-3.945
	c-0.015-1.761-0.215-3.344-0.601-4.758c-0.394-1.413-0.901-2.664-1.531-3.744c-0.622-1.081-1.302-2.005-2.031-2.775
	c-1.03-1.088-2.146-1.961-3.34-2.627c-1.201-0.666-2.433-1.169-3.698-1.517c-1.266-0.34-2.518-0.585-3.748-0.711
	c-1.23-0.125-2.396-0.192-3.49-0.208c-1.094-0.007-2.074-0.007-2.933,0c-0.65,0-1.287,0.007-1.916,0.022
	c-0.63,0.008-1.216,0.03-1.753,0.044c-0.537,0.015-0.995,0.029-1.366,0.044c-0.372,0.015-0.622,0.022-0.758,0.022
	c-0.064,0-0.251-0.008-0.579-0.022c-0.322-0.015-0.723-0.029-1.202-0.044c-0.479-0.015-0.987-0.037-1.523-0.044
	c-0.537-0.015-1.051-0.022-1.545-0.022c-0.236,0-0.407,0.022-0.522,0.074c-0.107,0.06-0.164,0.148-0.164,0.281
	c0.008,0.089,0.043,0.156,0.107,0.2c0.071,0.044,0.15,0.066,0.235,0.066c0.136,0,0.294,0,0.473,0.015
	c0.186,0.007,0.365,0.022,0.544,0.044c0.179,0.015,0.321,0.044,0.442,0.074c0.465,0.096,0.83,0.251,1.088,0.458
	c0.265,0.2,0.443,0.474,0.558,0.814c0.107,0.333,0.179,0.755,0.2,1.258c0.015,0.274,0.029,0.57,0.043,0.874
	c0.008,0.311,0.021,0.688,0.029,1.117c0,0.437,0.007,0.984,0.007,1.643c0.007,0.651,0.007,1.465,0.007,2.435s0,2.146,0,3.522V54.002
	z M287.964,52.182c-0.064,0-0.114-0.022-0.143-0.075c-0.028-0.044-0.028-0.125,0.014-0.236l3.777-11.989
	c0.214-0.666,0.429-0.666,0.643,0l4.078,11.989c0.028,0.088,0.028,0.163,0.014,0.222c-0.021,0.06-0.078,0.089-0.186,0.089H287.964z
	 M281.957,61.995c-0.25,0.747-0.529,1.413-0.837,2.012c-0.308,0.592-0.687,1.081-1.13,1.45c-0.437,0.378-0.987,0.615-1.638,0.711
	c-0.186,0.022-0.394,0.044-0.637,0.06c-0.243,0.022-0.443,0.029-0.608,0.029c-0.106,0-0.2,0.022-0.271,0.067
	c-0.071,0.044-0.114,0.111-0.114,0.2c0,0.133,0.064,0.222,0.2,0.273c0.129,0.06,0.336,0.082,0.615,0.082
	c0.507,0,1.022-0.007,1.545-0.022c0.515-0.015,1.001-0.03,1.459-0.044c0.457-0.015,0.852-0.03,1.173-0.044
	c0.322-0.015,0.551-0.022,0.672-0.022c0.122,0,0.315,0.007,0.58,0.022c0.257,0.015,0.558,0.029,0.887,0.044
	c0.329,0.015,0.658,0.029,0.987,0.044c0.336,0.015,0.629,0.022,0.895,0.022c0.192,0,0.35-0.022,0.464-0.082
	c0.114-0.052,0.179-0.141,0.179-0.273c0-0.089-0.035-0.156-0.1-0.2c-0.071-0.044-0.179-0.067-0.329-0.067h-0.429
	c-0.25,0-0.501-0.044-0.744-0.133c-0.25-0.096-0.458-0.237-0.622-0.429c-0.172-0.185-0.258-0.429-0.265-0.725
	c0-0.407,0.05-0.859,0.157-1.369c0.1-0.511,0.25-1.043,0.443-1.605l2.574-7.859c0.044-0.111,0.101-0.2,0.165-0.259
	c0.071-0.066,0.157-0.096,0.265-0.096h9.227c0.107,0,0.187,0.022,0.243,0.067c0.058,0.044,0.101,0.111,0.143,0.2l3.991,10.923
	c0.122,0.355,0.144,0.636,0.064,0.836c-0.071,0.2-0.179,0.318-0.321,0.363c-0.086,0.022-0.157,0.06-0.215,0.104
	c-0.057,0.052-0.086,0.119-0.086,0.208c0,0.125,0.114,0.207,0.336,0.236c0.222,0.037,0.544,0.059,0.952,0.075
	c0.75,0.022,1.486,0.037,2.209,0.051c0.73,0.015,1.403,0.022,2.032,0.022c0.622,0.008,1.151,0.015,1.588,0.015
	c0.436,0,0.743,0,0.908,0c0.243,0,0.442-0.022,0.607-0.082c0.157-0.052,0.243-0.141,0.251-0.273c0-0.111-0.044-0.178-0.115-0.215
	c-0.078-0.037-0.186-0.052-0.314-0.052c-0.222,0-0.479-0.015-0.779-0.051c-0.301-0.037-0.608-0.104-0.937-0.215
	c-0.223-0.059-0.473-0.17-0.737-0.325c-0.272-0.163-0.558-0.414-0.865-0.755c-0.308-0.348-0.637-0.829-0.987-1.451
	c-0.351-0.614-0.715-1.414-1.101-2.397c-0.33-0.851-0.716-1.857-1.152-3.019c-0.443-1.163-0.915-2.42-1.423-3.774
	c-0.509-1.354-1.03-2.76-1.567-4.196c-0.543-1.443-1.072-2.878-1.595-4.3c-0.529-1.413-1.029-2.768-1.509-4.055
	c-0.473-1.28-0.901-2.442-1.287-3.486c-0.387-1.036-0.701-1.902-0.959-2.59c-0.258-0.681-0.422-1.132-0.508-1.354
	c-0.171-0.451-0.308-0.799-0.415-1.028c-0.107-0.23-0.207-0.385-0.286-0.458c-0.078-0.082-0.157-0.119-0.243-0.112
	c-0.086-0.007-0.164,0.037-0.243,0.126c-0.079,0.082-0.179,0.252-0.286,0.503c-0.107,0.252-0.243,0.622-0.415,1.103L281.957,61.995z
	 M252.206,54.002c0,1.428,0,2.753-0.007,3.981c-0.007,1.221-0.029,2.317-0.057,3.271c-0.029,0.962-0.079,1.753-0.15,2.383
	c-0.05,0.429-0.122,0.821-0.207,1.169c-0.086,0.34-0.208,0.628-0.373,0.843c-0.157,0.222-0.378,0.37-0.665,0.429
	c-0.201,0.045-0.415,0.089-0.644,0.126c-0.229,0.029-0.444,0.051-0.644,0.051c-0.128,0-0.214,0.03-0.264,0.082
	c-0.057,0.052-0.079,0.119-0.079,0.186c0,0.133,0.057,0.222,0.164,0.273c0.115,0.06,0.286,0.082,0.522,0.082
	c0.329,0,0.708-0.007,1.138-0.022c0.429-0.015,0.858-0.03,1.28-0.044c0.421-0.015,0.787-0.03,1.094-0.044
	c0.314-0.015,0.515-0.022,0.608-0.022s0.3,0.007,0.622,0.022c0.322,0.015,0.715,0.029,1.188,0.044
	c0.472,0.015,0.973,0.029,1.517,0.044c0.543,0.015,1.079,0.022,1.609,0.022c0.235,0,0.407-0.03,0.521-0.096
	c0.107-0.059,0.165-0.148,0.165-0.259c0-0.067-0.021-0.133-0.079-0.186c-0.05-0.052-0.136-0.082-0.264-0.082
	c-0.201,0-0.451-0.022-0.76-0.051c-0.3-0.037-0.607-0.082-0.915-0.126c-0.422-0.059-0.751-0.207-0.979-0.429
	c-0.229-0.215-0.387-0.503-0.487-0.843c-0.1-0.348-0.172-0.741-0.208-1.169c-0.072-0.629-0.122-1.421-0.15-2.383
	c-0.029-0.955-0.05-2.05-0.058-3.271c-0.006-1.229-0.006-2.553-0.006-3.981V49.65h0.214c0.3,0.378,0.723,0.896,1.273,1.54
	c0.544,0.644,1.173,1.369,1.889,2.176c0.708,0.814,1.459,1.665,2.245,2.546c0.795,0.888,1.581,1.761,2.368,2.627
	c0.786,0.865,1.53,1.673,2.231,2.42c0.708,0.755,1.323,1.399,1.859,1.947c0.529,0.54,0.938,0.932,1.224,1.176
	c0.458,0.378,0.88,0.718,1.272,1.029c0.386,0.311,0.772,0.577,1.159,0.807c0.394,0.229,0.808,0.421,1.252,0.57
	c0.443,0.147,0.943,0.244,1.509,0.304c0.457,0.044,0.922,0.066,1.381,0.073c0.465,0.015,0.987,0.015,1.58,0.015h2.188
	c0.358,0,0.608-0.03,0.744-0.096c0.144-0.059,0.207-0.148,0.2-0.259c-0.007-0.089-0.057-0.156-0.164-0.2
	c-0.107-0.044-0.236-0.067-0.394-0.067c-0.107,0-0.301-0.015-0.572-0.037c-0.279-0.03-0.602-0.089-0.973-0.17
	c-0.364-0.089-0.736-0.207-1.116-0.37c-0.5-0.214-0.958-0.436-1.359-0.681c-0.407-0.237-0.822-0.533-1.259-0.881
	c-0.436-0.355-0.951-0.813-1.545-1.376c-0.601-0.555-1.344-1.266-2.231-2.123c-0.258-0.252-0.644-0.637-1.151-1.155
	c-0.507-0.525-1.095-1.139-1.76-1.842c-0.672-0.703-1.38-1.443-2.124-2.235c-0.736-0.785-1.474-1.569-2.21-2.354
	c-0.729-0.777-1.408-1.509-2.038-2.183c-0.629-0.681-1.166-1.258-1.603-1.74c-0.443-0.488-0.751-0.821-0.915-1.014
	c0.156-0.192,0.472-0.54,0.937-1.029c0.465-0.496,1.022-1.08,1.674-1.746c0.651-0.673,1.33-1.377,2.046-2.102
	c0.715-0.733,1.401-1.428,2.06-2.102c0.658-0.666,1.23-1.244,1.717-1.731c0.486-0.488,0.822-0.829,1.009-1.014
	c0.629-0.636,1.187-1.191,1.666-1.665c0.479-0.473,0.951-0.88,1.416-1.235c0.458-0.348,0.98-0.659,1.552-0.918
	c0.437-0.2,0.866-0.355,1.281-0.459c0.421-0.111,0.794-0.163,1.123-0.163c0.164,0,0.278-0.022,0.343-0.074
	c0.058-0.052,0.086-0.126,0.086-0.237c0-0.111-0.043-0.192-0.144-0.237c-0.1-0.052-0.264-0.074-0.5-0.074
	c-0.279,0-0.637,0.007-1.066,0.022c-0.429,0.008-0.872,0.03-1.315,0.044c-0.444,0.015-0.83,0.029-1.151,0.044
	c-0.329,0.015-0.522,0.022-0.588,0.022c-0.35,0-0.715-0.015-1.101-0.038c-0.386-0.022-0.766-0.044-1.13-0.059
	c-0.365-0.022-0.693-0.038-0.987-0.038c-0.15,0-0.279,0.022-0.371,0.074c-0.094,0.044-0.144,0.126-0.144,0.237
	c0,0.089,0.043,0.156,0.114,0.207c0.072,0.06,0.164,0.104,0.271,0.148c0.172,0.06,0.308,0.171,0.408,0.318
	c0.1,0.141,0.15,0.348,0.15,0.615c-0.008,0.251-0.114,0.547-0.337,0.873c-0.215,0.333-0.493,0.696-0.844,1.088
	c-0.351,0.392-0.729,0.807-1.137,1.236c-0.266,0.296-0.68,0.747-1.23,1.34c-0.551,0.592-1.188,1.265-1.896,2.027
	c-0.715,0.763-1.452,1.54-2.203,2.339s-1.459,1.554-2.131,2.265c-0.666,0.71-1.23,1.31-1.695,1.806
	c-0.458,0.496-0.758,0.821-0.887,0.969h-0.171v-2.664c0-1.376,0-2.553,0-3.522s0-1.784,0.006-2.435c0-0.659,0.008-1.206,0.015-1.643
	c0-0.429,0.014-0.806,0.021-1.11c0.015-0.31,0.029-0.606,0.043-0.88c0.029-0.77,0.165-1.361,0.394-1.769
	c0.229-0.399,0.629-0.659,1.195-0.762c0.25-0.044,0.457-0.082,0.614-0.104c0.165-0.022,0.315-0.029,0.458-0.029
	c0.086,0,0.165-0.022,0.236-0.066c0.064-0.044,0.101-0.111,0.107-0.2c0-0.133-0.058-0.222-0.164-0.281
	c-0.115-0.052-0.286-0.074-0.522-0.074c-0.33,0-0.708,0.007-1.138,0.022c-0.429,0.008-0.858,0.03-1.28,0.044
	c-0.43,0.015-0.794,0.029-1.116,0.044c-0.315,0.015-0.522,0.022-0.63,0.022c-0.071,0-0.265-0.008-0.572-0.022
	c-0.315-0.015-0.701-0.029-1.159-0.044c-0.465-0.015-0.951-0.037-1.473-0.044c-0.522-0.015-1.023-0.022-1.516-0.022
	c-0.236,0-0.408,0.022-0.522,0.074c-0.107,0.06-0.165,0.148-0.165,0.281c0.007,0.089,0.043,0.156,0.107,0.2
	c0.072,0.044,0.15,0.066,0.236,0.066c0.136,0,0.293,0,0.472,0.015c0.186,0.007,0.365,0.022,0.543,0.044
	c0.179,0.015,0.322,0.044,0.443,0.074c0.465,0.096,0.83,0.251,1.087,0.458c0.265,0.2,0.443,0.474,0.558,0.814
	c0.107,0.333,0.178,0.755,0.2,1.258c0.015,0.274,0.029,0.57,0.043,0.88c0.007,0.304,0.021,0.681,0.029,1.11
	c0,0.437,0.007,0.984,0.007,1.643c0.007,0.651,0.007,1.465,0.007,2.435s0,2.146,0,3.522V54.002z M223.356,52.182
	c-0.065,0-0.114-0.022-0.143-0.075c-0.028-0.044-0.028-0.125,0.014-0.236l3.777-11.989c0.215-0.666,0.429-0.666,0.644,0
	l4.077,11.989c0.028,0.088,0.028,0.163,0.014,0.222c-0.021,0.06-0.079,0.089-0.186,0.089H223.356z M217.349,61.995
	c-0.25,0.747-0.529,1.413-0.837,2.012c-0.307,0.592-0.687,1.081-1.13,1.45c-0.436,0.378-0.987,0.615-1.638,0.711
	c-0.186,0.022-0.394,0.044-0.637,0.06c-0.244,0.022-0.443,0.029-0.608,0.029c-0.107,0-0.2,0.022-0.272,0.067
	c-0.071,0.044-0.114,0.111-0.114,0.2c0,0.133,0.064,0.222,0.2,0.273c0.129,0.06,0.336,0.082,0.615,0.082
	c0.507,0,1.023-0.007,1.545-0.022c0.515-0.015,1.001-0.03,1.459-0.044c0.457-0.015,0.851-0.03,1.172-0.044
	c0.322-0.015,0.551-0.022,0.673-0.022c0.121,0,0.314,0.007,0.579,0.022c0.257,0.015,0.558,0.029,0.887,0.044
	c0.329,0.015,0.658,0.029,0.987,0.044c0.336,0.015,0.629,0.022,0.894,0.022c0.193,0,0.35-0.022,0.465-0.082
	c0.114-0.052,0.179-0.141,0.179-0.273c0-0.089-0.036-0.156-0.1-0.2c-0.071-0.044-0.179-0.067-0.329-0.067h-0.429
	c-0.25,0-0.501-0.044-0.745-0.133c-0.25-0.096-0.458-0.237-0.622-0.429c-0.171-0.185-0.258-0.429-0.265-0.725
	c0-0.407,0.05-0.859,0.158-1.369c0.1-0.511,0.25-1.043,0.443-1.605l2.575-7.859c0.042-0.111,0.1-0.2,0.164-0.259
	c0.072-0.066,0.158-0.096,0.266-0.096h9.226c0.107,0,0.186,0.022,0.243,0.067c0.057,0.044,0.1,0.111,0.143,0.2l3.991,10.923
	c0.122,0.355,0.144,0.636,0.064,0.836c-0.071,0.2-0.178,0.318-0.322,0.363c-0.085,0.022-0.158,0.06-0.214,0.104
	c-0.057,0.052-0.086,0.119-0.086,0.208c0,0.125,0.115,0.207,0.336,0.236c0.221,0.037,0.543,0.059,0.951,0.075
	c0.751,0.022,1.487,0.037,2.21,0.051c0.729,0.015,1.402,0.022,2.032,0.022c0.622,0.008,1.151,0.015,1.587,0.015s0.744,0,0.909,0
	c0.243,0,0.443-0.022,0.608-0.082c0.157-0.052,0.243-0.141,0.25-0.273c0-0.111-0.043-0.178-0.114-0.215
	c-0.079-0.037-0.186-0.052-0.315-0.052c-0.222,0-0.479-0.015-0.779-0.051c-0.3-0.037-0.608-0.104-0.937-0.215
	c-0.222-0.059-0.472-0.17-0.737-0.325c-0.272-0.163-0.558-0.414-0.865-0.755c-0.308-0.348-0.637-0.829-0.987-1.451
	c-0.351-0.614-0.716-1.414-1.102-2.397c-0.329-0.851-0.716-1.857-1.152-3.019c-0.443-1.163-0.915-2.42-1.423-3.774
	c-0.508-1.354-1.031-2.76-1.567-4.196c-0.543-1.443-1.072-2.878-1.594-4.3c-0.53-1.413-1.03-2.768-1.509-4.055
	c-0.472-1.28-0.902-2.442-1.288-3.486c-0.386-1.036-0.701-1.902-0.958-2.59c-0.257-0.681-0.422-1.132-0.508-1.354
	c-0.171-0.451-0.308-0.799-0.415-1.028c-0.107-0.23-0.208-0.385-0.286-0.458c-0.079-0.082-0.158-0.119-0.244-0.112
	c-0.085-0.007-0.164,0.037-0.243,0.126c-0.079,0.082-0.179,0.252-0.286,0.503c-0.107,0.252-0.243,0.622-0.415,1.103L217.349,61.995z
	"/>
<path fill="#000003" d="M453.325,52.182c-0.063,0-0.114-0.022-0.143-0.075c-0.028-0.044-0.028-0.125,0.014-0.236l3.777-11.989
	c0.215-0.666,0.429-0.666,0.644,0l4.077,11.989c0.028,0.088,0.028,0.163,0.014,0.222c-0.021,0.06-0.079,0.089-0.187,0.089H453.325z
	 M447.317,61.995c-0.25,0.747-0.528,1.413-0.837,2.012c-0.308,0.592-0.687,1.081-1.13,1.45c-0.436,0.378-0.987,0.615-1.638,0.711
	c-0.187,0.022-0.394,0.044-0.637,0.06c-0.243,0.022-0.443,0.029-0.608,0.029c-0.106,0-0.2,0.022-0.271,0.067
	c-0.071,0.044-0.114,0.111-0.114,0.2c0,0.133,0.064,0.222,0.2,0.273c0.129,0.06,0.336,0.082,0.615,0.082
	c0.508,0,1.022-0.007,1.544-0.022c0.516-0.015,1.002-0.03,1.46-0.044c0.458-0.015,0.852-0.03,1.174-0.044
	c0.321-0.015,0.55-0.022,0.672-0.022c0.121,0,0.314,0.007,0.579,0.022c0.258,0.015,0.558,0.029,0.887,0.044
	c0.329,0.015,0.658,0.029,0.987,0.044c0.336,0.015,0.629,0.022,0.894,0.022c0.193,0,0.351-0.022,0.465-0.082
	c0.114-0.052,0.179-0.141,0.179-0.273c0-0.089-0.035-0.156-0.1-0.2c-0.071-0.044-0.179-0.067-0.329-0.067h-0.429
	c-0.251,0-0.502-0.044-0.744-0.133c-0.251-0.096-0.458-0.237-0.622-0.429c-0.172-0.185-0.258-0.429-0.265-0.725
	c0-0.407,0.05-0.859,0.157-1.369c0.1-0.511,0.25-1.043,0.443-1.605l2.575-7.859c0.043-0.111,0.1-0.2,0.164-0.259
	c0.071-0.066,0.157-0.096,0.265-0.096h9.227c0.107,0,0.187,0.022,0.243,0.067c0.058,0.044,0.101,0.111,0.144,0.2l3.99,10.923
	c0.122,0.355,0.145,0.636,0.064,0.836c-0.071,0.2-0.179,0.318-0.322,0.363c-0.085,0.022-0.156,0.06-0.213,0.104
	c-0.059,0.052-0.087,0.119-0.087,0.208c0,0.125,0.114,0.207,0.336,0.236c0.222,0.037,0.544,0.059,0.951,0.075
	c0.752,0.022,1.488,0.037,2.21,0.051c0.73,0.015,1.402,0.022,2.032,0.022c0.622,0.008,1.151,0.015,1.588,0.015s0.743,0,0.908,0
	c0.243,0,0.443-0.022,0.607-0.082c0.158-0.052,0.243-0.141,0.251-0.273c0-0.111-0.043-0.178-0.115-0.215
	c-0.078-0.037-0.186-0.052-0.314-0.052c-0.222,0-0.479-0.015-0.779-0.051c-0.301-0.037-0.607-0.104-0.938-0.215
	c-0.221-0.059-0.472-0.17-0.736-0.325c-0.271-0.163-0.558-0.414-0.865-0.755c-0.308-0.348-0.637-0.829-0.987-1.451
	c-0.351-0.614-0.715-1.414-1.102-2.397c-0.329-0.851-0.715-1.857-1.151-3.019c-0.443-1.163-0.915-2.42-1.423-3.774
	c-0.509-1.354-1.03-2.76-1.566-4.196c-0.544-1.443-1.073-2.878-1.596-4.3c-0.529-1.413-1.029-2.768-1.509-4.055
	c-0.473-1.28-0.901-2.442-1.287-3.486c-0.387-1.036-0.701-1.902-0.959-2.59c-0.258-0.681-0.422-1.132-0.508-1.354
	c-0.172-0.451-0.308-0.799-0.414-1.028c-0.107-0.23-0.208-0.385-0.287-0.458c-0.078-0.082-0.157-0.119-0.243-0.112
	c-0.086-0.007-0.164,0.037-0.243,0.126c-0.078,0.082-0.178,0.252-0.286,0.503c-0.107,0.252-0.242,0.622-0.415,1.103L447.317,61.995z
	 M434.345,46.188c0-1.376,0-2.553,0-3.522s0-1.784,0.008-2.435c0-0.659,0.008-1.206,0.014-1.643c0-0.429,0.016-0.806,0.022-1.117
	c0.014-0.303,0.028-0.6,0.043-0.874c0.028-0.77,0.165-1.361,0.394-1.769c0.229-0.399,0.629-0.659,1.194-0.762
	c0.25-0.044,0.458-0.082,0.615-0.104c0.165-0.022,0.314-0.029,0.458-0.029c0.085,0,0.164-0.022,0.235-0.066
	c0.064-0.044,0.101-0.111,0.107-0.2c0-0.133-0.057-0.222-0.165-0.281c-0.114-0.052-0.285-0.074-0.521-0.074
	c-0.329,0-0.723,0.007-1.173,0.022c-0.443,0.008-0.888,0.03-1.33,0.044c-0.444,0.015-0.823,0.029-1.138,0.044
	c-0.314,0.015-0.5,0.022-0.565,0.022c-0.064,0-0.25-0.008-0.564-0.022c-0.322-0.015-0.701-0.029-1.152-0.044
	c-0.45-0.015-0.908-0.037-1.373-0.044c-0.465-0.015-0.879-0.022-1.244-0.022c-0.235,0-0.407,0.022-0.522,0.074
	c-0.106,0.06-0.164,0.148-0.164,0.281c0.007,0.089,0.043,0.156,0.107,0.2c0.071,0.044,0.15,0.066,0.235,0.066
	c0.157,0,0.358,0.007,0.602,0.037c0.243,0.03,0.485,0.074,0.729,0.141c0.472,0.104,0.822,0.355,1.051,0.762
	c0.236,0.399,0.372,0.97,0.408,1.724c0.015,0.274,0.028,0.57,0.043,0.874c0.007,0.311,0.021,0.688,0.028,1.117
	c0,0.437,0.008,0.984,0.008,1.643c0.007,0.651,0.007,1.465,0.007,2.435s0,2.146,0,3.522v7.814c0,1.428,0,2.753-0.007,3.981
	c-0.008,1.221-0.029,2.317-0.058,3.271c-0.029,0.962-0.079,1.753-0.15,2.383c-0.05,0.429-0.121,0.821-0.208,1.169
	c-0.086,0.34-0.207,0.628-0.372,0.843c-0.156,0.222-0.378,0.37-0.665,0.429c-0.2,0.045-0.414,0.089-0.644,0.126
	c-0.229,0.029-0.443,0.051-0.644,0.051c-0.129,0-0.214,0.03-0.265,0.082c-0.057,0.052-0.078,0.119-0.078,0.186
	c0,0.133,0.057,0.222,0.164,0.273c0.114,0.06,0.286,0.082,0.522,0.082c0.336,0,0.723-0.007,1.173-0.022
	c0.443-0.015,0.895-0.03,1.33-0.044c0.443-0.015,0.823-0.03,1.138-0.044c0.314-0.015,0.5-0.022,0.564-0.022
	c0.065,0,0.258,0.007,0.587,0.022c0.321,0.015,0.743,0.029,1.252,0.044c0.501,0.015,1.051,0.029,1.651,0.044
	c0.594,0.015,1.194,0.022,1.788,0.022c0.237,0,0.408-0.03,0.522-0.096c0.107-0.059,0.165-0.148,0.165-0.259
	c0-0.067-0.021-0.133-0.079-0.186c-0.05-0.052-0.136-0.082-0.265-0.082c-0.136,0-0.314-0.006-0.536-0.022
	c-0.229-0.022-0.466-0.044-0.716-0.066c-0.243-0.029-0.472-0.06-0.679-0.089c-0.422-0.059-0.751-0.207-0.98-0.429
	c-0.229-0.215-0.386-0.503-0.486-0.843c-0.101-0.348-0.171-0.741-0.207-1.169c-0.072-0.629-0.122-1.421-0.15-2.383
	c-0.028-0.955-0.05-2.05-0.058-3.271c-0.008-1.229-0.008-2.553-0.008-3.981V46.188z M413.479,33.889
	c-0.036-0.422-0.101-0.726-0.179-0.918c-0.071-0.192-0.186-0.281-0.337-0.281c-0.143,0.008-0.271,0.074-0.371,0.208
	c-0.093,0.133-0.187,0.296-0.272,0.503l-12.616,27.885l-13.132-27.929c-0.107-0.244-0.207-0.414-0.308-0.518
	c-0.101-0.104-0.208-0.148-0.337-0.148c-0.128,0-0.235,0.074-0.314,0.215c-0.086,0.141-0.136,0.34-0.157,0.585l-3.09,28.949
	c-0.05,0.57-0.113,1.118-0.207,1.643c-0.086,0.533-0.243,0.977-0.473,1.347c-0.229,0.363-0.572,0.6-1.036,0.696
	c-0.315,0.066-0.565,0.104-0.759,0.118c-0.186,0.015-0.365,0.015-0.529,0.015c-0.114,0-0.208,0.022-0.293,0.059
	c-0.086,0.044-0.129,0.097-0.137,0.164c0.008,0.155,0.072,0.259,0.208,0.318c0.129,0.06,0.308,0.082,0.522,0.082
	c0.301,0,0.629-0.007,1.001-0.022c0.365-0.015,0.729-0.03,1.095-0.044c0.357-0.015,0.672-0.03,0.943-0.044
	c0.272-0.015,0.466-0.022,0.565-0.022c0.093,0,0.271,0.007,0.544,0.022c0.271,0.015,0.601,0.029,0.986,0.044
	c0.387,0.015,0.787,0.029,1.217,0.044c0.429,0.015,0.844,0.022,1.244,0.022c0.258,0,0.45-0.022,0.579-0.082
	c0.129-0.059,0.193-0.163,0.193-0.318c0-0.067-0.036-0.119-0.107-0.164c-0.064-0.037-0.144-0.059-0.236-0.059
	c-0.136,0-0.35-0.015-0.637-0.044c-0.293-0.029-0.622-0.089-0.994-0.178c-0.328-0.074-0.594-0.237-0.801-0.488
	c-0.2-0.252-0.308-0.548-0.314-0.888c0-0.377,0-0.762,0.007-1.147c0-0.385,0.015-0.762,0.036-1.118l1.717-20.602h0.172
	c0.07,0.177,0.221,0.525,0.443,1.036c0.222,0.51,0.493,1.132,0.822,1.857c0.321,0.725,0.665,1.509,1.044,2.338
	c0.372,0.829,0.744,1.657,1.108,2.486c0.372,0.821,0.723,1.583,1.038,2.287c0.313,0.703,0.586,1.287,0.8,1.76
	c0.215,0.467,0.351,0.763,0.408,0.889c0.043,0.081,0.165,0.341,0.372,0.77c0.2,0.422,0.465,0.962,0.779,1.613
	c0.315,0.651,0.651,1.362,1.023,2.117c0.364,0.762,0.729,1.517,1.094,2.265c0.365,0.748,0.702,1.428,1.009,2.05
	c0.308,0.622,0.551,1.117,0.744,1.487c0.271,0.526,0.479,0.939,0.644,1.243c0.157,0.296,0.286,0.503,0.394,0.622
	c0.1,0.126,0.2,0.185,0.293,0.178c0.122,0.007,0.235-0.052,0.336-0.178c0.107-0.125,0.236-0.355,0.4-0.695
	c0.157-0.34,0.387-0.836,0.68-1.48l10.514-23.088h0.129l2.061,22.911c0.028,0.274,0.042,0.526,0.042,0.762
	c0,0.237-0.021,0.429-0.057,0.578c-0.029,0.155-0.086,0.244-0.157,0.259c-0.107,0.022-0.179,0.059-0.229,0.103
	c-0.05,0.052-0.071,0.118-0.071,0.208c-0.007,0.111,0.065,0.199,0.229,0.274c0.171,0.066,0.493,0.126,0.973,0.17
	c0.328,0.029,0.751,0.052,1.266,0.082c0.515,0.022,1.072,0.044,1.674,0.066c0.594,0.022,1.18,0.045,1.752,0.06
	c0.572,0.022,1.08,0.037,1.523,0.044c0.437,0.008,0.759,0.015,0.951,0.015c0.266,0,0.479-0.037,0.645-0.104
	c0.164-0.066,0.25-0.163,0.257-0.295c0-0.089-0.028-0.148-0.093-0.178c-0.057-0.029-0.143-0.044-0.25-0.044
	c-0.222,0.007-0.587-0.006-1.088-0.051c-0.5-0.037-1.065-0.156-1.702-0.348c-0.457-0.163-0.829-0.422-1.115-0.77
	c-0.286-0.355-0.509-0.762-0.673-1.213c-0.157-0.459-0.278-0.925-0.351-1.399c-0.079-0.474-0.136-0.917-0.178-1.325L413.479,33.889z
	 M356.993,54.002c0,1.428,0,2.753-0.007,3.975c-0.007,1.228-0.029,2.324-0.058,3.278c-0.028,0.962-0.079,1.753-0.15,2.383
	c-0.05,0.429-0.121,0.821-0.207,1.161c-0.086,0.348-0.208,0.629-0.373,0.852c-0.156,0.222-0.378,0.37-0.664,0.429
	c-0.2,0.045-0.415,0.089-0.644,0.126c-0.229,0.029-0.443,0.051-0.644,0.051c-0.129,0-0.215,0.03-0.265,0.082
	c-0.058,0.052-0.079,0.119-0.079,0.186c0,0.133,0.058,0.222,0.165,0.273c0.114,0.06,0.285,0.082,0.521,0.082
	c0.329-0.007,0.723-0.022,1.166-0.044c0.442-0.029,0.887-0.044,1.323-0.044c0.458-0.022,0.851-0.038,1.166-0.038
	c0.314-0.007,0.5-0.007,0.551-0.007c0.314,0,0.744,0.007,1.287,0.029c0.543,0.022,1.23,0.06,2.06,0.104
	c0.837,0.022,1.854,0.052,3.047,0.081c1.202,0.03,2.604,0.052,4.206,0.052c0.551,0.008,0.979-0.007,1.28-0.044
	c0.3-0.037,0.521-0.133,0.672-0.296c0.15-0.163,0.272-0.437,0.365-0.813c0.043-0.193,0.093-0.452,0.144-0.77
	c0.05-0.326,0.1-0.673,0.143-1.043c0.05-0.377,0.101-0.74,0.136-1.095c0.043-0.347,0.072-0.651,0.101-0.903
	c0.021-0.251,0.035-0.421,0.035-0.495c0.007-0.164-0.007-0.311-0.028-0.452c-0.028-0.133-0.107-0.207-0.229-0.214
	c-0.107,0-0.187,0.044-0.244,0.148c-0.057,0.104-0.1,0.274-0.143,0.518c-0.143,0.902-0.364,1.598-0.657,2.101
	c-0.302,0.496-0.723,0.866-1.273,1.096c-0.379,0.163-0.823,0.273-1.316,0.34c-0.494,0.074-0.994,0.119-1.487,0.133
	c-0.494,0.015-0.938,0.015-1.316,0.015c-1.044,0.008-1.888-0.037-2.532-0.141c-0.65-0.096-1.145-0.273-1.487-0.533
	c-0.344-0.259-0.58-0.629-0.716-1.103c-0.136-0.48-0.222-1.102-0.243-1.865c-0.007-0.2-0.014-0.533-0.014-1.006
	c-0.008-0.466-0.008-1.014-0.008-1.635c0.008-0.622,0.008-1.25,0.008-1.895c0.007-0.644,0.007-1.236,0.007-1.776
	c0.007-0.54,0.007-0.969,0.007-1.28v-3.907c0-0.089,0.021-0.163,0.072-0.222c0.042-0.059,0.121-0.089,0.229-0.089
	c0.157,0,0.422,0,0.809,0.007c0.379,0.008,0.829,0.022,1.33,0.03c0.508,0.015,1.022,0.029,1.545,0.052
	c0.529,0.015,1.009,0.037,1.438,0.059c0.437,0.022,0.772,0.044,1.016,0.074c0.551,0.06,0.98,0.178,1.288,0.341
	c0.3,0.17,0.521,0.355,0.665,0.569c0.136,0.215,0.229,0.429,0.278,0.645c0.087,0.288,0.136,0.547,0.15,0.784
	c0.021,0.237,0.028,0.459,0.021,0.681c0,0.111,0.021,0.207,0.071,0.281c0.043,0.074,0.122,0.118,0.229,0.118
	c0.101-0.007,0.172-0.051,0.215-0.141c0.043-0.088,0.064-0.2,0.071-0.325c0.015-0.133,0.015-0.259,0.015-0.377
	c0-0.082,0.007-0.237,0.015-0.452c0.007-0.215,0.021-0.466,0.042-0.755c0.015-0.281,0.029-0.57,0.051-0.858
	c0.021-0.288,0.043-0.548,0.064-0.777c0.071-0.725,0.144-1.295,0.222-1.695c0.071-0.399,0.114-0.667,0.122-0.792
	c0-0.134-0.022-0.222-0.058-0.281c-0.043-0.052-0.094-0.074-0.157-0.074c-0.086,0-0.172,0.052-0.272,0.155
	c-0.1,0.104-0.222,0.245-0.371,0.422c-0.187,0.215-0.443,0.363-0.766,0.444c-0.322,0.081-0.737,0.141-1.252,0.177
	c-0.172,0.015-0.443,0.03-0.809,0.037c-0.371,0.007-0.793,0.022-1.272,0.022c-0.486,0.007-0.98,0.015-1.488,0.015
	c-0.515,0.007-1.001,0.007-1.459,0.015c-0.457,0-0.844,0-1.166,0c-0.321,0-0.528,0-0.629,0c-0.107,0-0.172-0.037-0.207-0.104
	c-0.036-0.074-0.051-0.185-0.051-0.341V35.487c0-0.156,0.021-0.267,0.064-0.34c0.043-0.074,0.107-0.104,0.193-0.104
	c0.107,0,0.343,0,0.723,0.007c0.379,0,0.822,0.008,1.345,0.015c0.515,0.007,1.037,0.015,1.566,0.022
	c0.521,0.015,0.994,0.022,1.402,0.037c0.407,0.015,0.686,0.03,0.843,0.052c0.766,0.088,1.346,0.207,1.753,0.348
	c0.407,0.148,0.7,0.319,0.887,0.511c0.186,0.2,0.322,0.415,0.408,0.651c0.071,0.178,0.121,0.377,0.164,0.577
	c0.036,0.208,0.058,0.408,0.071,0.585c0.015,0.185,0.021,0.326,0.021,0.437c0,0.178,0.021,0.319,0.078,0.422
	c0.051,0.104,0.137,0.156,0.266,0.156c0.086-0.008,0.149-0.059,0.2-0.163c0.043-0.104,0.078-0.207,0.1-0.326
	c0.021-0.141,0.043-0.348,0.064-0.621c0.021-0.274,0.043-0.563,0.058-0.881c0.021-0.311,0.036-0.6,0.05-0.858
	c0.021-0.259,0.036-0.451,0.043-0.57c0.072-0.614,0.143-1.073,0.222-1.392c0.071-0.318,0.114-0.547,0.122-0.695
	c0-0.111-0.015-0.208-0.036-0.281c-0.028-0.074-0.071-0.119-0.136-0.119c-0.107,0.007-0.207,0.037-0.301,0.097
	c-0.093,0.052-0.192,0.096-0.3,0.125c-0.18,0.044-0.423,0.089-0.744,0.126c-0.322,0.044-0.687,0.074-1.102,0.096
	c-0.15,0.007-0.43,0.015-0.837,0.015c-0.415,0.007-0.909,0.007-1.487,0.015c-0.587,0-1.202,0.007-1.86,0.007
	c-0.665,0-1.316,0-1.96,0c-0.644,0.008-1.236,0.008-1.773,0.008c-0.543,0-0.979,0-1.323,0s-0.536,0-0.586,0l-1.76-0.089
	c-0.479-0.022-0.987-0.038-1.53-0.038c-0.537-0.007-1.059-0.007-1.56-0.007c-0.236,0-0.407,0.022-0.522,0.074
	c-0.107,0.06-0.164,0.148-0.164,0.281c0.007,0.089,0.043,0.156,0.107,0.2c0.071,0.044,0.15,0.066,0.235,0.066
	c0.136,0,0.294,0,0.472,0.015c0.187,0.007,0.365,0.022,0.545,0.044c0.178,0.015,0.321,0.044,0.442,0.074
	c0.466,0.096,0.83,0.251,1.088,0.458c0.265,0.2,0.443,0.474,0.558,0.814c0.106,0.333,0.179,0.755,0.2,1.258
	c0.015,0.274,0.028,0.57,0.043,0.88c0.007,0.304,0.021,0.681,0.029,1.11c0,0.437,0.007,0.984,0.007,1.643
	c0.007,0.651,0.007,1.465,0.007,2.435s0,2.146,0,3.522V54.002z"/>
<path fill-rule="evenodd" clip-rule="evenodd" fill="#A61E2B" d="M16.273,34.77c23.339-12.379,55.667-23.844,102.879-13.59v85.553
	H16.273V34.77z"/>
<path fill-rule="evenodd" clip-rule="evenodd" fill="#A61E2B" d="M132.873,7.306C88.944-8.987,39.644,3.117,3.708,32.254l0.06,4.363
	C41.731,12.672,84.51,3.437,132.31,19.263L132.873,7.306z"/>
<path fill-rule="evenodd" clip-rule="evenodd" fill="#FFFFFF" d="M104.968,26.764c-23.012-4.726-50.185,0.27-72.599,7.853
	l0.19,7.125l72.409,0.169V26.764z"/>
<rect x="32.458" y="50.177" fill-rule="evenodd" clip-rule="evenodd" fill="#FFFFFF" width="14.187" height="49.364"/>
<rect x="51.948" y="50.078" fill-rule="evenodd" clip-rule="evenodd" fill="#FFFFFF" width="14.187" height="49.366"/>
<rect x="71.251" y="50.177" fill-rule="evenodd" clip-rule="evenodd" fill="#FFFFFF" width="14.187" height="49.364"/>
<rect x="90.742" y="50.078" fill-rule="evenodd" clip-rule="evenodd" fill="#FFFFFF" width="14.187" height="49.366"/>
<rect x="10.229" y="109.943" fill-rule="evenodd" clip-rule="evenodd" fill="#A61E2B" width="114.968" height="6.574"/>
<rect x="5.378" y="119.355" fill-rule="evenodd" clip-rule="evenodd" fill="#A61E2B" width="124.668" height="6.573"/>
<rect y="128.766" fill-rule="evenodd" clip-rule="evenodd" fill="#A61E2B" width="135.425" height="6.574"/>
<rect x="173.313" y="21.449" fill-rule="evenodd" clip-rule="evenodd" fill="#000003" width="2.927" height="113.635"/>
</svg>
